# xmcd CD database file generated by OrangeCD 6.3
#
# Track frame offsets:
#	183
#	14068
#	24373
#	36833
#	49393
#	61468
#	72425
#	83033
#	94943
#	104938
#	115528
#	126680
#	139145
#	151148
#	162758
#	175908
#	188485
#	198790
#
# Disc length: 2787 seconds
#
# Revision: 4
# Processed by: cddbd v1.5.2PL0 Copyright (c) Steve Scherf et al.
# Submitted via: OrangeCD 6.3
#
DISCID=fc0ae112
DTITLE=Jimmy Reed - You Don't Have To Go
DYEAR=1994
DGENRE=Electric Chicago Blues
TTITLE0=You Don't Have To Go
TTITLE1=I Ain't Got You
TTITLE2=Can't Stand To See You Go
TTITLE3=You Got Me Dizzy
TTITLE4=Honest I Do
TTITLE5=Down In Virginia
TTITLE6=Too Much
TTITLE7=I'm Gonna Get My Baby
TTITLE8=I Wanna Be Loved
TTITLE9=Baby, What You Want Me To Do?
TTITLE10=Hush Hush
TTITLE11=Big Boss Man
TTITLE12=Bright Lights, Big City
TTITLE13=Down The Road
TTITLE14=I'm Going Upside Your Head
TTITLE15=Shame, Shame, Shame
TTITLE16=Take Out Some Insurance
TTITLE17=Found Love
EXTD=
EXTT0=
EXTT1=
EXTT2=
EXTT3=
EXTT4=
EXTT5=
EXTT6=
EXTT7=
EXTT8=
EXTT9=
EXTT10=
EXTT11=
EXTT12=
EXTT13=
EXTT14=
EXTT15=
EXTT16=
EXTT17=
PLAYORDER=
